<svg width="20" height="20" viewBox="0 0 20 20" fill="none" xmlns="http://www.w3.org/2000/svg">
<path d="M10 0.000976562C4.48586 0.000976562 0 4.48711 0 10.0013C0.000464134 15.5149 4.48651 20.0008 10 20.0008C15.5141 20.0008 20.0001 15.515 20.0001 10.0012C20 4.48711 15.5141 0.000976562 10 0.000976562ZM10 1.39338C12.0442 1.39338 13.9237 2.11009 15.4018 3.30487L3.30399 15.4026C2.1094 13.9246 1.39259 12.0452 1.3924 10.0012C1.3924 5.25488 5.25381 1.39338 10 1.39338ZM10 18.6084C7.79838 18.6084 5.78747 17.777 4.26363 16.4123L16.4114 4.26451C17.7762 5.78836 18.6076 7.79945 18.6076 10.0013C18.6076 14.7473 14.7462 18.6084 10 18.6084Z" fill="#AAB2BA"/>
</svg>
