<svg width="135" height="149" viewBox="0 0 135 149" fill="none" xmlns="http://www.w3.org/2000/svg">
<path d="M135 53.3159H0V144.329H135V53.3159Z" fill="#FCD042"/>
<path d="M133.295 49.5094L77.2894 3.5047C74.5299 1.23766 71.0702 -0.00146484 67.5 -0.00146484C63.9298 -0.00146484 60.47 1.23766 57.7105 3.5047L1.70483 49.5094C1.16457 49.9844 0.732709 50.5701 0.438551 51.2268C0.144392 51.8835 -0.00518202 52.5958 -2.35615e-05 53.3155C-0.000629455 53.9953 0.152411 54.6666 0.447645 55.2789C0.742879 55.8912 1.17266 56.4287 1.70483 56.8513L57.7105 102.856C60.47 105.123 63.9298 106.362 67.5 106.362C71.0702 106.362 74.5299 105.123 77.2894 102.856L133.295 56.8513C133.827 56.4287 134.257 55.8912 134.552 55.2789C134.848 54.6666 135.001 53.9953 135 53.3155C135.004 52.5961 134.853 51.8842 134.559 51.2277C134.265 50.5712 133.834 49.9853 133.295 49.5094Z" fill="#C48C2B"/>
<path d="M98.3571 10.0364H13.5V66.5406L57.7106 102.826C60.4701 105.093 63.9298 106.332 67.5 106.332C71.0702 106.332 74.5299 105.093 77.2894 102.826L121.5 66.5406V33.197L98.3571 10.0364Z" fill="#F1F1F2"/>
<path d="M98.3571 10.0364L104.374 40.2996L121.5 33.197L98.3571 10.0364Z" fill="#A4A4A6"/>
<path d="M121.5 33.197H98.3571V10.0364L121.5 33.197Z" fill="#CFD1D3"/>
<path d="M133.295 140.786L77.2894 94.7811C74.5299 92.514 71.0702 91.2749 67.5 91.2749C63.9298 91.2749 60.4701 92.514 57.7106 94.7811L1.70488 140.786C0.96753 141.391 0.434855 142.209 0.179665 143.128C-0.0755248 144.048 -0.040777 145.023 0.279159 145.922C0.599095 146.821 1.18861 147.599 1.96711 148.15C2.74562 148.701 3.67513 148.998 4.62859 149H130.371C131.325 148.998 132.254 148.701 133.033 148.15C133.811 147.599 134.401 146.821 134.721 145.922C135.041 145.023 135.076 144.048 134.82 143.128C134.565 142.209 134.033 141.391 133.295 140.786Z" fill="#EDB836"/>
</svg>
