<svg width="18" height="18" viewBox="0 0 18 18" fill="none" xmlns="http://www.w3.org/2000/svg">
<path d="M0.642857 3.37501H1.80001C2.10001 4.48394 3 5.30358 4.07143 5.30358C5.14286 5.30358 6.04285 4.48394 6.34285 3.37501H17.3571C17.7 3.37501 18 3.03751 18 2.65179C18 2.26608 17.7 1.92858 17.3571 1.92858H6.34285C6.04285 0.819645 5.14286 0 4.07143 0C3 0 2.10001 0.819645 1.80001 1.92858H0.642857C0.3 1.92858 0 2.26608 0 2.65179C0 3.03751 0.3 3.37501 0.642857 3.37501ZM4.07143 1.44643C4.67143 1.44643 5.14286 1.97679 5.14286 2.65179C5.14286 3.32679 4.67143 3.85715 4.07143 3.85715C3.47143 3.85715 3 3.32679 3 2.65179C3 1.97679 3.47143 1.44643 4.07143 1.44643Z" fill="white"/>
<path d="M17.3571 8.03577H11.1857C10.8428 7.07148 9.98571 6.34827 9 6.34827C8.01429 6.34827 7.15715 7.07148 6.8143 8.03577H0.642857C0.3 8.03577 0 8.37327 0 8.75899C0 9.1447 0.3 9.4822 0.642857 9.4822H6.6857C6.89999 10.7358 7.84286 11.6518 9 11.6518C10.1571 11.6518 11.1 10.7358 11.3143 9.4822H17.3571C17.7 9.4822 18 9.1447 18 8.75899C18 8.37327 17.7 8.03577 17.3571 8.03577ZM9 10.2054C8.4 10.2054 7.92857 9.67506 7.92857 9.00006C7.92857 8.32506 8.4 7.7947 9 7.7947C9.6 7.7947 10.0714 8.32506 10.0714 9.00006C10.0714 9.67506 9.6 10.2054 9 10.2054Z" fill="white"/>
<path d="M17.3571 14.625H16.2C15.9 13.5161 15 12.6964 13.9286 12.6964C12.8571 12.6964 11.9571 13.5161 11.6571 14.625H0.642857C0.3 14.625 0 14.9625 0 15.3482C0 15.7339 0.3 16.0714 0.642857 16.0714H11.6571C11.9571 17.1803 12.8571 18 13.9286 18C15 18 15.9 17.1803 16.2 16.0714H17.3571C17.7 16.0714 18 15.7339 18 15.3482C18 14.9625 17.7 14.625 17.3571 14.625ZM13.9286 16.5536C13.3286 16.5536 12.8571 16.0232 12.8571 15.3482C12.8571 14.6732 13.3286 14.1428 13.9286 14.1428C14.5286 14.1428 15 14.6732 15 15.3482C15 16.0232 14.5286 16.5536 13.9286 16.5536Z" fill="white"/>
</svg>
