<svg width="20" height="20" viewBox="0 0 20 20" fill="none" xmlns="http://www.w3.org/2000/svg">
<path d="M19.2188 4.98047H18.5156V4.27734C18.5156 3.84586 18.1659 3.49609 17.7344 3.49609C17.3029 3.49609 16.9531 3.84586 16.9531 4.27734V4.98047H16.25C15.8185 4.98047 15.4688 5.33023 15.4688 5.76172C15.4688 6.1932 15.8185 6.54297 16.25 6.54297H16.9531V7.24609C16.9531 7.67758 17.3029 8.02734 17.7344 8.02734C18.1659 8.02734 18.5156 7.67758 18.5156 7.24609V6.54297H19.2188C19.6502 6.54297 20 6.1932 20 5.76172C20 5.33023 19.6502 4.98047 19.2188 4.98047Z" fill="#AAB2BA"/>
<path d="M12.3207 9.73559C13.5099 8.81684 14.2773 7.37734 14.2773 5.76172C14.2773 2.99395 12.0256 0.742188 9.25781 0.742188C6.49004 0.742188 4.23828 2.99395 4.23828 5.76172C4.23828 7.3773 5.0057 8.81684 6.19496 9.73559C2.6677 10.9685 0 14.3526 0 18.4766C0 18.908 0.349766 19.2578 0.78125 19.2578H17.7344C18.1659 19.2578 18.5156 18.908 18.5156 18.4766C18.5156 14.3516 15.8459 10.9678 12.3207 9.73559ZM5.80078 5.76172C5.80078 3.85551 7.3516 2.30469 9.25781 2.30469C11.164 2.30469 12.7148 3.85551 12.7148 5.76172C12.7148 7.66793 11.164 9.21875 9.25781 9.21875C7.3516 9.21875 5.80078 7.66793 5.80078 5.76172ZM1.60187 17.6953C1.99457 13.8176 5.27824 10.7812 9.25781 10.7812C13.2374 10.7812 16.5211 13.8176 16.9137 17.6953H1.60187Z" fill="#AAB2BA"/>
</svg>
