<svg width="90" height="54" viewBox="0 0 90 54" fill="none" xmlns="http://www.w3.org/2000/svg">
<path d="M23.9517 22.4146C23.9517 24.142 23.497 25.7457 22.6704 27.1443V47.7077C22.6704 51.1624 19.6945 54.0001 16.0159 54.0001H13.2053C9.52679 54.0001 6.55089 51.1624 6.55089 47.7077V37.3437C6.55089 36.5621 7.21222 35.9042 7.99753 35.9042C8.78284 35.9042 9.44413 36.5621 9.44413 37.3437V47.7077C9.44413 49.5997 11.1388 51.1215 13.2053 51.1215H16.0159C18.0825 51.1215 19.7772 49.5997 19.7772 47.7077V30.2288C18.2479 31.2569 16.4293 31.8739 14.4453 31.8739C9.19615 31.8739 4.93896 27.6376 4.93896 22.4146C4.93896 17.1913 9.19615 12.9552 14.4453 12.9552C19.6945 12.9552 23.9517 17.1913 23.9517 22.4146Z" fill="#D4145A"/>
<path d="M35.3114 24.9837C34.9282 24.7766 34.4814 24.6731 33.971 24.6731C33.2791 24.6731 32.7384 24.9271 32.3485 25.4349C31.9589 25.9365 31.7639 26.6216 31.7639 27.4907V32.3938H28.5798V22.1262H31.7639V24.0312H31.8044C32.3084 22.6408 33.2151 21.9456 34.5252 21.9456C34.8612 21.9456 35.1232 21.9855 35.3114 22.0659V24.9837ZM45.9931 28.1624H39.2615C39.3689 29.6533 40.313 30.3984 42.0931 30.3984C43.2285 30.3984 44.2261 30.131 45.086 29.5963V31.8826C44.1322 32.3905 42.8928 32.6444 41.3675 32.6444C39.7016 32.6444 38.4083 32.1868 37.4878 31.2708C36.5676 30.3485 36.1073 29.065 36.1073 27.4203C36.1073 25.7157 36.6047 24.3655 37.5989 23.3695C38.5932 22.3735 39.8157 21.8753 41.2669 21.8753C42.7716 21.8753 43.9338 22.3198 44.7537 23.209C45.58 24.0982 45.9931 25.3046 45.9931 26.8287V28.1624ZM43.0406 26.2173C43.0406 24.7465 42.4426 24.0111 41.2467 24.0111C40.7363 24.0111 40.2928 24.2218 39.9164 24.643C39.547 25.0641 39.3221 25.5887 39.2413 26.2173H43.0406ZM56.4731 32.3938H53.4604V30.9201H53.4199C52.728 32.0699 51.7035 32.6444 50.3462 32.6444C49.3452 32.6444 48.556 32.3637 47.9782 31.8022C47.4072 31.2339 47.1217 30.4788 47.1217 29.536C47.1217 27.5439 48.3076 26.3941 50.6789 26.0869L53.4802 25.7157C53.4802 24.5927 52.8691 24.0312 51.6462 24.0312C50.4169 24.0312 49.2479 24.3957 48.1395 25.124V22.7376C48.583 22.5105 49.1873 22.3098 49.9533 22.1359C50.726 21.9624 51.428 21.8753 52.0593 21.8753C55.0021 21.8753 56.4731 23.336 56.4731 26.2571V32.3938ZM53.4802 28.2227V27.5305L51.6062 27.7714C50.5715 27.9051 50.054 28.3698 50.054 29.1652C50.054 29.526 50.1786 29.8235 50.427 30.0577C50.6823 30.2848 51.025 30.3984 51.455 30.3984C52.0526 30.3984 52.5398 30.1947 52.9159 29.787C53.2923 29.3726 53.4802 28.8509 53.4802 28.2227ZM75.3779 32.3938H72.2035V26.5379C72.2035 25.0473 71.6527 24.3019 70.551 24.3019C70.0272 24.3019 69.6006 24.526 69.2713 24.9736C68.942 25.4215 68.7773 25.9797 68.7773 26.6484V32.3938H65.5932V26.4779C65.5932 25.0272 65.0521 24.3019 63.9706 24.3019C63.4266 24.3019 62.9899 24.516 62.6606 24.9438C62.338 25.3716 62.1771 25.9533 62.1771 26.6883V32.3938H58.9926V22.1262H62.1771V23.7303H62.2171C62.5464 23.1822 63.0067 22.7376 63.5979 22.3969C64.1955 22.0492 64.8474 21.8753 65.5528 21.8753C67.0107 21.8753 68.0083 22.5138 68.5457 23.7906C69.3315 22.5138 70.4871 21.8753 72.0123 21.8753C74.2561 21.8753 75.3779 23.2526 75.3779 26.0065V32.3938ZM79.5095 20.5016C78.9722 20.5016 78.5321 20.3445 78.1893 20.0303C77.8469 19.7095 77.6755 19.3184 77.6755 18.8572C77.6755 18.3825 77.8469 17.9948 78.1893 17.694C78.5321 17.3932 78.9722 17.2428 79.5095 17.2428C80.0536 17.2428 80.4937 17.3932 80.8297 17.694C81.1725 17.9948 81.3435 18.3825 81.3435 18.8572C81.3435 19.3385 81.1725 19.7329 80.8297 20.0404C80.4937 20.3479 80.0536 20.5016 79.5095 20.5016ZM81.0816 32.3938H77.8971V22.1262H81.0816V32.3938ZM90 32.2736C89.5296 32.5208 88.8209 32.6444 87.8737 32.6444C85.6296 32.6444 84.5078 31.4849 84.5078 29.1652V24.4624H82.8351V22.1262H84.5078V19.91L87.6822 19.0076V22.1262H90V24.4624H87.6822V28.6137C87.6822 29.6831 88.1088 30.2182 88.9619 30.2182C89.298 30.2182 89.6437 30.121 90 29.9274V32.2736Z" fill="#262525"/>
<path d="M4.23671 13.0785C3.86472 13.0785 3.49272 12.9551 3.24474 12.6673C2.66606 12.0915 2.66606 11.1867 3.20339 10.652C6.17929 7.60859 10.1885 5.9635 14.4457 5.9635C18.6203 5.9635 22.5881 7.60859 25.564 10.5286C26.1427 11.1044 26.1427 12.0092 25.564 12.585C24.9854 13.1608 24.0761 13.1608 23.4974 12.585C21.0588 10.1585 17.8763 8.84241 14.4457 8.84241C10.9738 8.84241 7.70859 10.1996 5.27001 12.6673C4.98067 12.9551 4.60867 13.0785 4.23671 13.0785Z" fill="#D4145A"/>
<path d="M1.4673 8.26658C1.0953 8.26658 0.723301 8.14318 0.434003 7.85532C-0.144668 7.27951 -0.144668 6.37473 0.434003 5.84007C4.15386 2.05635 9.11373 0 14.4456 0C19.6947 0 24.6132 2.01524 28.333 5.71668C28.9119 6.29248 28.9119 7.19726 28.333 7.73192C27.7545 8.30772 26.8452 8.30772 26.3078 7.73192C23.1666 4.60625 18.9508 2.83777 14.4869 2.83777C9.98169 2.83777 5.72448 4.60625 2.54194 7.81417C2.21125 8.14318 1.83929 8.26658 1.4673 8.26658Z" fill="#D4145A"/>
<path d="M35.2889 25.375C34.9058 25.1676 34.4593 25.0641 33.9485 25.0641C33.2566 25.0641 32.7159 25.3181 32.326 25.8263C31.9364 26.3275 31.7419 27.0126 31.7419 27.8817V32.7852H28.5574V22.5172H31.7419V24.4226H31.7819C32.286 23.0322 33.1927 22.3366 34.5027 22.3366C34.8388 22.3366 35.1007 22.3769 35.2889 22.4573V25.375ZM45.9706 28.5538H39.2391C39.3465 30.0443 40.2906 30.7898 42.0707 30.7898C43.206 30.7898 44.2036 30.5224 45.0636 29.9877V32.2736C44.1097 32.7819 42.8703 33.0358 41.3451 33.0358C39.6791 33.0358 38.3859 32.5778 37.4653 31.6622C36.5452 30.7395 36.0849 29.456 36.0849 27.8117C36.0849 26.1071 36.5822 24.7566 37.5765 23.7605C38.5707 22.7645 39.7933 22.2666 41.2444 22.2666C42.7491 22.2666 43.9114 22.7112 44.7313 23.6004C45.5575 24.4892 45.9706 25.696 45.9706 27.22V28.5538ZM43.0182 26.6083C43.0182 25.1379 42.4202 24.4025 41.2242 24.4025C40.7138 24.4025 40.2704 24.6128 39.8939 25.034C39.5246 25.4551 39.2997 25.9801 39.2189 26.6083H43.0182ZM56.451 32.7852H53.4379V31.3111H53.3975C52.7056 32.4609 51.681 33.0358 50.3238 33.0358C49.3228 33.0358 48.5336 32.755 47.9558 32.1935C47.3848 31.6253 47.0992 30.8698 47.0992 29.9274C47.0992 27.9353 48.2851 26.7855 50.6564 26.4779L53.4577 26.1071C53.4577 24.9841 52.8466 24.4226 51.6237 24.4226C50.3945 24.4226 49.2255 24.7867 48.1171 25.5154V23.129C48.5605 22.9015 49.1652 22.7012 49.9308 22.5273C50.7036 22.3534 51.4056 22.2666 52.0369 22.2666C54.9796 22.2666 56.451 23.7274 56.451 26.6485V32.7852ZM53.4577 28.6138V27.9219L51.5837 28.1625C50.549 28.2961 50.0315 28.7608 50.0315 29.5565C50.0315 29.9174 50.1561 30.2149 50.4046 30.4487C50.6598 30.6762 51.0026 30.7898 51.4325 30.7898C52.0301 30.7898 52.5173 30.5857 52.8934 30.178C53.2699 29.7636 53.4577 29.2423 53.4577 28.6138ZM75.3555 32.7852H72.1811V26.9292C72.1811 25.4387 71.6302 24.6933 70.5286 24.6933C70.0047 24.6933 69.5781 24.917 69.2488 25.365C68.9195 25.8129 68.7549 26.3711 68.7549 27.0395V32.7852H65.5707V26.8693C65.5707 25.4186 65.0296 24.6933 63.9482 24.6933C63.4041 24.6933 62.9674 24.907 62.6381 25.3348C62.3155 25.7627 62.1546 26.3443 62.1546 27.0797V32.7852H58.9701V22.5172H62.1546V24.1217H62.1947C62.524 23.5736 62.9842 23.129 63.5755 22.7879C64.1731 22.4405 64.825 22.2666 65.5303 22.2666C66.9882 22.2666 67.9859 22.9049 68.5232 24.1817C69.309 22.9049 70.4646 22.2666 71.9899 22.2666C74.2336 22.2666 75.3555 23.6436 75.3555 26.3979V32.7852ZM79.4871 20.8929C78.9497 20.8929 78.5096 20.7358 78.1669 20.4216C77.8245 20.1007 77.6531 19.7097 77.6531 19.2484C77.6531 18.7738 77.8245 18.3861 78.1669 18.0853C78.5096 17.7844 78.9497 17.634 79.4871 17.634C80.0312 17.634 80.4712 17.7844 80.8073 18.0853C81.15 18.3861 81.321 18.7738 81.321 19.2484C81.321 19.7297 81.15 20.1241 80.8073 20.4316C80.4712 20.7391 80.0312 20.8929 79.4871 20.8929ZM81.0591 32.7852H77.875V22.5172H81.0591V32.7852ZM89.9775 32.6649C89.5071 32.9122 88.7984 33.0358 87.8513 33.0358C85.6072 33.0358 84.4853 31.8759 84.4853 29.5565V24.8537H82.8126V22.5172H84.4853V20.3013L87.6597 19.3988V22.5172H89.9775V24.8537H87.6597V29.0047C87.6597 30.0745 88.0863 30.6092 88.9395 30.6092C89.2755 30.6092 89.6213 30.5124 89.9775 30.3184V32.6649Z" fill="#262525"/>
</svg>
