<svg width="20" height="20" viewBox="0 0 20 20" fill="none" xmlns="http://www.w3.org/2000/svg">
<g clip-path="url(#clip0)">
<path d="M18.9032 2.87596C18.1999 2.17217 17.2457 1.7769 16.2508 1.77723C15.2562 1.77489 14.302 2.17004 13.6003 2.87474L8.7583 7.71675C7.8003 8.67626 7.43406 10.0778 7.80022 11.3833C7.90743 11.7633 8.30245 11.9845 8.68252 11.8773C9.06258 11.7701 9.28379 11.3751 9.17658 10.995C8.95085 10.1877 9.17733 9.32135 9.7693 8.72779L14.6113 3.8865C15.5165 2.98103 16.9844 2.98086 17.8899 3.88616C18.7954 4.79142 18.7955 6.25932 17.8903 7.16479L13.0483 12.0068C12.731 12.3245 12.328 12.5429 11.8886 12.6353C11.502 12.7157 11.2538 13.0944 11.3343 13.481C11.4035 13.8134 11.697 14.0513 12.0366 14.0502C12.0865 14.0503 12.1364 14.045 12.1853 14.0345C12.8954 13.8848 13.5466 13.5315 14.0593 13.0178L18.9013 8.17654C20.3655 6.71333 20.3664 4.34022 18.9032 2.87596Z" fill="#AAB2BA"/>
<path d="M12.1789 8.63621C12.0717 8.25615 11.6766 8.03494 11.2966 8.14215C10.9165 8.24936 10.6953 8.64438 10.8025 9.02445C11.0282 9.8318 10.8017 10.6981 10.2098 11.2917L5.36777 16.1337C4.46251 17.0392 2.99461 17.0393 2.08915 16.134C1.18368 15.2288 1.18351 13.7609 2.08877 12.8554L6.93077 8.0127C7.24758 7.69505 7.6501 7.47666 8.08908 7.38419C8.47631 7.30673 8.72742 6.93006 8.64996 6.54287C8.5725 6.15568 8.19582 5.90452 7.80863 5.98198C7.8039 5.98295 7.79921 5.98391 7.79451 5.98496C7.08423 6.1349 6.43286 6.48815 5.91978 7.0017L1.07777 11.8437C-0.374966 13.3189 -0.356784 15.6923 1.11837 17.1451C2.57743 18.5819 4.9195 18.5821 6.37877 17.1454L11.2207 12.3027C12.1788 11.3432 12.545 9.94169 12.1789 8.63621Z" fill="#AAB2BA"/>
</g>
<defs>
<clipPath id="clip0">
<rect width="20" height="20" fill="white"/>
</clipPath>
</defs>
</svg>
