<svg width="20" height="20" viewBox="0 0 20 20" fill="none" xmlns="http://www.w3.org/2000/svg">
<g clip-path="url(#clip0)">
<path d="M15.539 1.67334C13.4371 0.276218 10.9136 -0.271975 8.42511 0.12708C8.38179 0.1279 8.33847 0.13208 8.29515 0.13958C5.66419 0.596094 3.36814 2.04989 1.82938 4.23262C0.292301 6.41621 -0.303391 9.06714 0.152342 11.699C0.228161 12.133 0.33394 12.5704 0.467258 12.9953C1.01795 14.7839 0.882133 16.7009 0.085703 18.393C-0.0534349 18.6862 -0.00761551 19.0345 0.201521 19.2836C0.410618 19.5327 0.742213 19.636 1.05877 19.551L4.79358 18.5313C6.37484 19.4994 8.16015 20 9.98301 20C10.6453 20 11.3126 19.9342 11.9766 19.8001C14.5951 19.2727 16.8512 17.7581 18.3291 15.5346C21.3808 10.9442 20.1294 4.72668 15.539 1.67334ZM16.942 14.6123C15.7098 16.466 13.8295 17.7282 11.6484 18.1672C9.469 18.6063 7.24627 18.1697 5.39177 16.9368C5.25349 16.8451 5.09268 16.7976 4.93022 16.7976C4.8569 16.7976 4.78276 16.8076 4.71026 16.8276L2.16762 17.5216C2.59667 15.8837 2.56499 14.1491 2.05848 12.5004C1.94602 12.1414 1.85688 11.7756 1.79438 11.414C1.41447 9.22132 1.91102 7.01191 3.19232 5.19237C4.45198 3.4037 6.3223 2.20317 8.46925 1.80244C8.50925 1.80076 8.54839 1.79662 8.58839 1.78994C10.6953 1.42588 12.8364 1.87826 14.6176 3.0621C18.4432 5.60561 19.4854 10.7867 16.942 14.6123Z" fill="#AAB2BA"/>
<path d="M10.0033 4.91821C9.54258 4.91821 9.17017 5.29063 9.17017 5.75132V10.75C9.17017 11.2107 9.54258 11.5831 10.0033 11.5831C10.464 11.5831 10.8364 11.2098 10.8364 10.75V5.75132C10.8364 5.29063 10.464 4.91821 10.0033 4.91821Z" fill="#AAB2BA"/>
<path d="M10.7689 13.8483C10.7272 13.74 10.6689 13.6484 10.5939 13.5734C10.5523 13.5401 10.5106 13.4984 10.4606 13.4734C10.419 13.4401 10.369 13.4159 10.319 13.3984C10.269 13.3726 10.219 13.3568 10.1607 13.3484C9.89496 13.2901 9.60254 13.3826 9.41176 13.5734C9.33676 13.6484 9.27848 13.74 9.23681 13.8483C9.19517 13.9483 9.17017 14.0566 9.17017 14.1649C9.17017 14.2732 9.19517 14.3815 9.23681 14.4815C9.27845 14.5815 9.33676 14.6731 9.41176 14.7564C9.49508 14.8314 9.58672 14.8897 9.68668 14.9314C9.78664 14.973 9.89496 14.998 10.0033 14.998C10.1116 14.998 10.219 14.973 10.319 14.9314C10.419 14.8897 10.5098 14.8314 10.5939 14.7564C10.6689 14.6731 10.7272 14.5815 10.7689 14.4815C10.8105 14.3815 10.8355 14.2732 10.8355 14.1649C10.8355 14.0566 10.8105 13.9483 10.7689 13.8483Z" fill="#AAB2BA"/>
</g>
<defs>
<clipPath id="clip0">
<rect width="20" height="20" fill="white"/>
</clipPath>
</defs>
</svg>
