<svg width="20" height="20" viewBox="0 0 20 20" fill="none" xmlns="http://www.w3.org/2000/svg">
<path d="M16.0286 6.25C14.3062 6.25 12.9036 4.84833 12.9036 3.125C12.9036 1.40167 14.3062 0 16.0286 0C17.7511 0 19.1536 1.40167 19.1536 3.125C19.1536 4.84833 17.7511 6.25 16.0286 6.25ZM16.0286 1.25C14.9952 1.25 14.1536 2.09076 14.1536 3.125C14.1536 4.15924 14.9952 5 16.0286 5C17.0619 5 17.9036 4.15924 17.9036 3.125C17.9036 2.09076 17.0619 1.25 16.0286 1.25Z" fill="#AAB2BA"/>
<path d="M16.0286 20C14.3062 20 12.9036 18.5983 12.9036 16.875C12.9036 15.1517 14.3062 13.75 16.0286 13.75C17.7511 13.75 19.1536 15.1517 19.1536 16.875C19.1536 18.5983 17.7511 20 16.0286 20ZM16.0286 15C14.9952 15 14.1536 15.8408 14.1536 16.875C14.1536 17.9092 14.9952 18.75 16.0286 18.75C17.0619 18.75 17.9036 17.9092 17.9036 16.875C17.9036 15.8408 17.0619 15 16.0286 15Z" fill="#AAB2BA"/>
<path d="M3.94531 13.125C2.22275 13.125 0.820312 11.7233 0.820312 10C0.820312 8.27667 2.22275 6.875 3.94531 6.875C5.66788 6.875 7.07031 8.27667 7.07031 10C7.07031 11.7233 5.66788 13.125 3.94531 13.125ZM3.94531 8.125C2.91199 8.125 2.07031 8.96576 2.07031 10C2.07031 11.0342 2.91199 11.875 3.94531 11.875C4.97864 11.875 5.82031 11.0342 5.82031 10C5.82031 8.96576 4.97864 8.125 3.94531 8.125Z" fill="#AAB2BA"/>
<path d="M6.12127 9.39166C5.90368 9.39166 5.69204 9.27829 5.5779 9.07672C5.407 8.77673 5.51122 8.39496 5.81121 8.22421L13.5437 3.8158C13.8428 3.64337 14.2254 3.74835 14.3953 4.04926C14.5662 4.34925 14.462 4.73087 14.162 4.90177L6.42949 9.31003C6.33199 9.36496 6.22625 9.39166 6.12127 9.39166Z" fill="#AAB2BA"/>
<path d="M13.8528 16.2666C13.7478 16.2666 13.6419 16.2399 13.5444 16.1842L5.81187 11.7758C5.51188 11.605 5.40782 11.2233 5.57857 10.9233C5.74855 10.6225 6.13032 10.5183 6.43031 10.69L14.1627 15.0982C14.4627 15.2691 14.5669 15.6508 14.3962 15.9507C14.2811 16.1532 14.0695 16.2666 13.8528 16.2666Z" fill="#AAB2BA"/>
</svg>
